<svg xmlns="http://www.w3.org/2000/svg" viewBox="0 0 100 100" fill="none">
  <defs>
    <linearGradient id="emeraldGrad" x1="0%" y1="0%" x2="100%" y2="100%">
      <stop offset="0%" style="stop-color:#059669"/>
      <stop offset="50%" style="stop-color:#10b981"/>
      <stop offset="100%" style="stop-color:#34d399"/>
    </linearGradient>
    <linearGradient id="pageGrad" x1="0%" y1="0%" x2="100%" y2="100%">
      <stop offset="0%" style="stop-color:#6ee7b7"/>
      <stop offset="100%" style="stop-color:#a7f3d0"/>
    </linearGradient>
  </defs>
  <!-- Book body -->
  <path d="M15 20 C15 16 18 13 22 13 L70 13 C74 13 77 16 77 20 L77 82 C77 86 74 89 70 89 L22 89 C18 89 15 86 15 82 Z" fill="url(#emeraldGrad)" opacity="0.9"/>
  <!-- Book spine shadow -->
  <path d="M15 20 L15 82 C15 86 18 89 22 89 L26 89 L26 13 L22 13 C18 13 15 16 15 20 Z" fill="#047857" opacity="0.5"/>
  <!-- Page -->
  <rect x="28" y="18" width="44" height="66" rx="3" fill="url(#pageGrad)" opacity="0.25"/>
  <!-- Brain circuit top -->
  <circle cx="46" cy="38" r="6" fill="none" stroke="#d1fae5" stroke-width="2"/>
  <circle cx="46" cy="38" r="2" fill="#d1fae5"/>
  <!-- Brain nodes -->
  <circle cx="34" cy="46" r="3" fill="none" stroke="#a7f3d0" stroke-width="1.5"/>
  <circle cx="34" cy="46" r="1" fill="#a7f3d0"/>
  <circle cx="58" cy="32" r="3" fill="none" stroke="#a7f3d0" stroke-width="1.5"/>
  <circle cx="58" cy="32" r="1" fill="#a7f3d0"/>
  <circle cx="58" cy="50" r="3" fill="none" stroke="#a7f3d0" stroke-width="1.5"/>
  <circle cx="58" cy="50" r="1" fill="#a7f3d0"/>
  <circle cx="46" cy="58" r="3" fill="none" stroke="#a7f3d0" stroke-width="1.5"/>
  <circle cx="46" cy="58" r="1" fill="#a7f3d0"/>
  <!-- Neural connections -->
  <line x1="40" y1="40" x2="37" y2="44" stroke="#6ee7b7" stroke-width="1.2" opacity="0.7"/>
  <line x1="52" y1="36" x2="55" y2="33" stroke="#6ee7b7" stroke-width="1.2" opacity="0.7"/>
  <line x1="52" y1="41" x2="55" y2="47" stroke="#6ee7b7" stroke-width="1.2" opacity="0.7"/>
  <line x1="46" y1="44" x2="46" y2="55" stroke="#6ee7b7" stroke-width="1.2" opacity="0.7"/>
  <line x1="37" y1="48" x2="43" y2="56" stroke="#6ee7b7" stroke-width="1" opacity="0.5"/>
  <line x1="55" y1="52" x2="49" y2="56" stroke="#6ee7b7" stroke-width="1" opacity="0.5"/>
  <!-- Text lines -->
  <rect x="33" y="67" width="26" height="2" rx="1" fill="#d1fae5" opacity="0.4"/>
  <rect x="33" y="72" width="18" height="2" rx="1" fill="#d1fae5" opacity="0.3"/>
  <!-- Sparkle -->
  <circle cx="80" cy="18" r="2" fill="#34d399" opacity="0.6"/>
  <circle cx="84" cy="25" r="1" fill="#6ee7b7" opacity="0.4"/>
  <circle cx="12" cy="75" r="1.5" fill="#34d399" opacity="0.5"/>
</svg>
